<mxfile host="app.diagrams.net" modified="2024-03-22T13:15:06.160Z" agent="Mozilla/5.0 (Windows NT 10.0; Win64; x64) AppleWebKit/537.36 (KHTML, like Gecko) Chrome/123.0.0.0 Safari/537.36" etag="4C8UlKnLS7QfT2sWh_Pw" version="24.0.8" type="github">
  <diagram name="Page-1" id="vnInHfGw2ap3HoS_hYrM">
    <mxGraphModel dx="1114" dy="600" grid="1" gridSize="10" guides="1" tooltips="1" connect="1" arrows="1" fold="1" page="1" pageScale="1" pageWidth="850" pageHeight="1100" math="0" shadow="0">
      <root>
        <mxCell id="0" />
        <mxCell id="1" parent="0" />
        <mxCell id="qLy_zMkc3R44bJCCO3ae-1" value="" style="edgeStyle=entityRelationEdgeStyle;fontSize=12;html=1;endArrow=ERzeroToMany;startArrow=ERmandOne;rounded=0;" parent="1" edge="1">
          <mxGeometry width="100" height="100" relative="1" as="geometry">
            <mxPoint x="270" y="590" as="sourcePoint" />
            <mxPoint x="370" y="490" as="targetPoint" />
          </mxGeometry>
        </mxCell>
        <mxCell id="qLy_zMkc3R44bJCCO3ae-2" value="Parking Lot" style="shape=rhombus;perimeter=rhombusPerimeter;whiteSpace=wrap;html=1;align=center;" parent="1" vertex="1">
          <mxGeometry x="365" y="70" width="120" height="60" as="geometry" />
        </mxCell>
        <mxCell id="qLy_zMkc3R44bJCCO3ae-3" value="Entrance" style="rounded=1;arcSize=10;whiteSpace=wrap;html=1;align=center;" parent="1" vertex="1">
          <mxGeometry x="150" y="80" width="100" height="40" as="geometry" />
        </mxCell>
        <mxCell id="qLy_zMkc3R44bJCCO3ae-5" value="" style="edgeStyle=entityRelationEdgeStyle;fontSize=12;html=1;endArrow=ERoneToMany;rounded=0;entryX=0;entryY=0.5;entryDx=0;entryDy=0;exitX=1;exitY=0.5;exitDx=0;exitDy=0;" parent="1" source="qLy_zMkc3R44bJCCO3ae-12" target="qLy_zMkc3R44bJCCO3ae-16" edge="1">
          <mxGeometry width="100" height="100" relative="1" as="geometry">
            <mxPoint x="60" y="450" as="sourcePoint" />
            <mxPoint x="160" y="350" as="targetPoint" />
          </mxGeometry>
        </mxCell>
        <mxCell id="qLy_zMkc3R44bJCCO3ae-6" value="" style="edgeStyle=entityRelationEdgeStyle;fontSize=12;html=1;endArrow=ERmandOne;rounded=0;exitX=0;exitY=0.5;exitDx=0;exitDy=0;entryX=1;entryY=0.5;entryDx=0;entryDy=0;" parent="1" source="qLy_zMkc3R44bJCCO3ae-2" target="qLy_zMkc3R44bJCCO3ae-3" edge="1">
          <mxGeometry width="100" height="100" relative="1" as="geometry">
            <mxPoint x="330" y="160" as="sourcePoint" />
            <mxPoint x="190" y="180" as="targetPoint" />
          </mxGeometry>
        </mxCell>
        <mxCell id="qLy_zMkc3R44bJCCO3ae-8" value="" style="edgeStyle=entityRelationEdgeStyle;fontSize=12;html=1;endArrow=ERzeroToOne;endFill=1;rounded=0;entryX=0;entryY=0.5;entryDx=0;entryDy=0;exitX=1;exitY=0.5;exitDx=0;exitDy=0;" parent="1" source="qLy_zMkc3R44bJCCO3ae-17" target="qLy_zMkc3R44bJCCO3ae-19" edge="1">
          <mxGeometry width="100" height="100" relative="1" as="geometry">
            <mxPoint x="380" y="610" as="sourcePoint" />
            <mxPoint x="480" y="510" as="targetPoint" />
          </mxGeometry>
        </mxCell>
        <mxCell id="qLy_zMkc3R44bJCCO3ae-10" value="" style="edgeStyle=entityRelationEdgeStyle;fontSize=12;html=1;endArrow=ERzeroToMany;endFill=1;rounded=0;entryX=0;entryY=0.5;entryDx=0;entryDy=0;exitX=1;exitY=0.5;exitDx=0;exitDy=0;" parent="1" source="qLy_zMkc3R44bJCCO3ae-2" target="qLy_zMkc3R44bJCCO3ae-11" edge="1">
          <mxGeometry width="100" height="100" relative="1" as="geometry">
            <mxPoint x="550" y="150" as="sourcePoint" />
            <mxPoint x="580" as="targetPoint" />
          </mxGeometry>
        </mxCell>
        <mxCell id="qLy_zMkc3R44bJCCO3ae-11" value="Vehicles" style="rounded=1;arcSize=10;whiteSpace=wrap;html=1;align=center;" parent="1" vertex="1">
          <mxGeometry x="620" y="80" width="100" height="40" as="geometry" />
        </mxCell>
        <mxCell id="qLy_zMkc3R44bJCCO3ae-12" value="College" style="shape=rhombus;perimeter=rhombusPerimeter;whiteSpace=wrap;html=1;align=center;" parent="1" vertex="1">
          <mxGeometry x="365" y="180" width="120" height="60" as="geometry" />
        </mxCell>
        <mxCell id="qLy_zMkc3R44bJCCO3ae-13" value="President" style="rounded=1;arcSize=10;whiteSpace=wrap;html=1;align=center;" parent="1" vertex="1">
          <mxGeometry x="150" y="190" width="100" height="40" as="geometry" />
        </mxCell>
        <mxCell id="qLy_zMkc3R44bJCCO3ae-14" value="" style="edgeStyle=entityRelationEdgeStyle;fontSize=12;html=1;endArrow=ERmandOne;rounded=0;entryX=1;entryY=0.5;entryDx=0;entryDy=0;exitX=0;exitY=0.5;exitDx=0;exitDy=0;" parent="1" source="qLy_zMkc3R44bJCCO3ae-12" target="qLy_zMkc3R44bJCCO3ae-13" edge="1">
          <mxGeometry width="100" height="100" relative="1" as="geometry">
            <mxPoint x="340" y="150" as="sourcePoint" />
            <mxPoint x="260" y="170" as="targetPoint" />
            <Array as="points">
              <mxPoint x="250" y="210" />
            </Array>
          </mxGeometry>
        </mxCell>
        <mxCell id="qLy_zMkc3R44bJCCO3ae-16" value="Students" style="rounded=1;arcSize=10;whiteSpace=wrap;html=1;align=center;" parent="1" vertex="1">
          <mxGeometry x="620" y="190" width="100" height="40" as="geometry" />
        </mxCell>
        <mxCell id="qLy_zMkc3R44bJCCO3ae-17" value="Vehicle" style="shape=rhombus;perimeter=rhombusPerimeter;whiteSpace=wrap;html=1;align=center;" parent="1" vertex="1">
          <mxGeometry x="365" y="290" width="120" height="60" as="geometry" />
        </mxCell>
        <mxCell id="qLy_zMkc3R44bJCCO3ae-18" value="Driver seat" style="rounded=1;arcSize=10;whiteSpace=wrap;html=1;align=center;" parent="1" vertex="1">
          <mxGeometry x="150" y="300" width="100" height="40" as="geometry" />
        </mxCell>
        <mxCell id="qLy_zMkc3R44bJCCO3ae-19" value="passenger" style="rounded=1;arcSize=10;whiteSpace=wrap;html=1;align=center;" parent="1" vertex="1">
          <mxGeometry x="620" y="300" width="100" height="40" as="geometry" />
        </mxCell>
        <mxCell id="qLy_zMkc3R44bJCCO3ae-20" value="" style="edgeStyle=entityRelationEdgeStyle;fontSize=12;html=1;endArrow=ERmandOne;rounded=0;entryX=1;entryY=0.5;entryDx=0;entryDy=0;exitX=0;exitY=0.5;exitDx=0;exitDy=0;" parent="1" source="qLy_zMkc3R44bJCCO3ae-17" target="qLy_zMkc3R44bJCCO3ae-18" edge="1">
          <mxGeometry width="100" height="100" relative="1" as="geometry">
            <mxPoint x="375" y="220" as="sourcePoint" />
            <mxPoint x="260" y="220" as="targetPoint" />
            <Array as="points">
              <mxPoint x="260" y="220" />
            </Array>
          </mxGeometry>
        </mxCell>
      </root>
    </mxGraphModel>
  </diagram>
</mxfile>
